<svg width="192" height="192" version="1.1" xmlns="http://www.w3.org/2000/svg" desc="Created with imagetracer.js version 1.2.6" ><path fill="rgb(136,91,245)" stroke="rgb(136,91,245)" stroke-width="1" opacity="1" d="M 32.5 0 L 104 0.5 L 0 103.5 L 0 32.5 L 2 21.5 Q 5.2 13.2 11.5 8 L 21.5 2 L 32.5 0 Z " /><path fill="rgb(170,78,241)" stroke="rgb(170,78,241)" stroke-width="1" opacity="1" d="M 156.5 0 L 172 2.5 L 92.5 82 L 91.5 81 L 84.5 77 L 84 90.5 L 2.5 172 L 0 156.5 L 156.5 0 Z " /><path fill="rgb(183,53,223)" stroke="rgb(183,53,223)" stroke-width="1" opacity="1" d="M 184.5 11 L 191 21.5 L 192 29.5 L 29.5 192 L 25.5 192 Q 16.6 189.9 11 184.5 L 84 112.5 L 84.5 116 L 87 115 L 87.5 119 L 119 99.5 L 116 97.5 Q 116.8 95.3 114.5 96 L 106 91 L 106 89.5 L 184.5 11 Z " /><path fill="rgb(160,86,246)" stroke="rgb(160,86,246)" stroke-width="1" opacity="1" d="M 104.5 0 L 156 0.5 L 0 155.5 L 0 104.5 L 104.5 0 Z " /><path fill="rgb(255,255,255)" stroke="rgb(255,255,255)" stroke-width="1" opacity="1" d="M 84.5 77 L 116 96.5 L 84.5 116 L 84.5 77 Z " /><path fill="rgb(197,55,132)" stroke="rgb(197,55,132)" stroke-width="1" opacity="0.8666666666666667" d="M 0 0 L 32 0.5 L 21.5 2 Q 13.2 5.2 8 11.5 Q 0.7 18.3 0.5 32 L 0 0 Z " /><path fill="rgb(197,55,132)" stroke="rgb(197,55,132)" stroke-width="1" opacity="0.8666666666666667" d="M 161.5 0 L 192 0 L 192 24.5 L 191 24.5 Q 189 13.5 181.5 8 L 171.5 2 L 161.5 1 L 161.5 0 Z " /><path fill="rgb(197,55,132)" stroke="rgb(197,55,132)" stroke-width="1" opacity="0.8666666666666667" d="M 114.5 97 L 119 99.5 L 87.5 119 L 87 114.5 L 114.5 97 Z " /><path fill="rgb(197,55,132)" stroke="rgb(197,55,132)" stroke-width="1" opacity="0.8666666666666667" d="M 191.5 113 L 192 192 L 113 191.5 L 191.5 113 Z " /><path fill="rgb(197,55,132)" stroke="rgb(197,55,132)" stroke-width="1" opacity="0.8666666666666667" d="M 0.5 161 L 2 171.5 Q 5.2 179.8 11.5 185 L 21.5 191 L 25 191.5 L 0 192 L 0.5 161 Z " /><path fill="rgb(176,66,232)" stroke="rgb(176,66,232)" stroke-width="1" opacity="1" d="M 171.5 3 Q 179.8 4.7 184 10.5 L 105.5 90 L 93 83 L 93 81.5 L 171.5 3 Z " /><path fill="rgb(176,66,232)" stroke="rgb(176,66,232)" stroke-width="1" opacity="1" d="M 83.5 91 L 84 111.5 L 10.5 184 Q 4.7 179.8 3 171.5 L 83.5 91 Z " /><path fill="rgb(197,44,202)" stroke="rgb(197,44,202)" stroke-width="1" opacity="1" d="M 191.5 30 L 192 112.5 L 112.5 192 L 30.5 192 L 191.5 30 Z " /></svg>